<svg width="16" height="16" viewBox="0 0 15 20" fill="none" xmlns="http://www.w3.org/2000/svg">
<path d="M9.41673 0C5.43867 2.4558 5.91673 9.37499 5.91673 9.37499C5.91673 9.37499 4.16675 8.74998 4.16675 5.93751C2.07889 7.23465 0.666748 9.72785 0.666748 12.5C0.666748 16.6421 3.80075 20 7.66675 20C11.5327 20 14.6667 16.6421 14.6667 12.5C14.6667 6.40626 9.41673 5.15624 9.41673 0ZM8.28162 17.4157C6.87499 17.7915 5.45033 16.8744 5.09955 15.3672C4.74885 13.8601 5.60483 12.3336 7.01154 11.9578C10.4076 11.0506 10.8332 9.00446 10.8332 9.00446C10.8332 9.00446 12.5267 16.2817 8.28162 17.4157Z" fill="white"/>
</svg>
